<svg width="74.396" height="9.012" xmlns="http://www.w3.org/2000/svg"><g fill-rule="nonzero" fill="none"><path d="M10.194.5h53.232a1 1 0 0 1 .654.243L73.053 8.5H1.264L9.51.77a1 1 0 0 1 .684-.27Z" fill="#F2F3F5"/><path d="M10.194.5h53.232a1 1 0 0 1 .654.243L73.053 8.5H1.264L9.51.77a1 1 0 0 1 .684-.27Z" fill="#F2F3F5"/><path d="M63.426 0c.36 0 .708.13.98.365l8.974 7.757L74.396 9H0l.922-.865L9.168.405A1.5 1.5 0 0 1 10.194 0h53.232Zm0 1H10.194a.5.5 0 0 0-.342.135L1.495 9.012h71.276l-9.018-7.89a.5.5 0 0 0-.238-.114L63.425 1Z" fill="#1664FF"/><rect stroke="#CDCED0" x="23.298" y="6" width="28" height="1" rx=".5"/></g></svg>